# xmcd CD database file
#
# Track frame offsets:
#	150
#	18041
#	43051
#	62166
#	87238
#	105374
#	125598
#	142944
#	167453
#	188352
#	202120
#	224093
#	239010
#	267455
#
# Disc length: 4440 seconds
#
# Revision: 2
# Processed by: cddbd v1.5.1PL0 Copyright (c) Steve Scherf et al.
# Submitted via: CDex 1.51
#
DISCID=c611560e
DTITLE=Sara Evans - Restless
DYEAR=2003
DGENRE=Country
TTITLE0=Rockin' Horse
TTITLE1=Backseat Of A Greyhound Bus
TTITLE2=Restless
TTITLE3=Niagara
TTITLE4=Perfect
TTITLE5=Need To Be Next To You
TTITLE6=To Be Happy
TTITLE7=Tonight
TTITLE8=Otis Redding
TTITLE9=Feel It Comin' On
TTITLE10=I Give In
TTITLE11=Big Cry
TTITLE12=Suds In The Bucket
TTITLE13=Data Track
EXTD=YEAR: 2003
EXTT0=
EXTT1=
EXTT2=
EXTT3=
EXTT4=
EXTT5=
EXTT6=
EXTT7=
EXTT8=
EXTT9=
EXTT10=
EXTT11=
EXTT12=
EXTT13=
PLAYORDER=
